<?xml version="1.0" standalone="no"?><!DOCTYPE svg PUBLIC "-//W3C//DTD SVG 1.1//EN" "http://www.w3.org/Graphics/SVG/1.1/DTD/svg11.dtd"><svg t="1513179105396" class="icon" style="" viewBox="0 0 1024 1024" version="1.1" xmlns="http://www.w3.org/2000/svg" p-id="2472" xmlns:xlink="http://www.w3.org/1999/xlink" width="15" height="15"><defs><style type="text/css"></style></defs><path d="M701.44 629.76l-194.56 235.52L307.2 629.76h394.24z" fill="#ffffff" p-id="2473"></path><path d="M307.2 593.92h394.24c15.36 0 25.6 10.24 30.72 20.48 5.12 15.36 5.12 30.72-5.12 40.96l-199.68 235.52c-10.24 15.36-35.84 15.36-46.08 0l-194.56-230.4c-10.24-5.12-15.36-15.36-15.36-30.72 5.12-15.36 20.48-35.84 35.84-35.84z m322.56 76.8H384l122.88 143.36 122.88-143.36z" fill="#ffffff" p-id="2474"></path><path d="M701.44 501.76L501.76 271.36 307.2 501.76h394.24z" fill="#ffffff" p-id="2475"></path><path d="M307.2 537.6h394.24c15.36 0 25.6-10.24 30.72-20.48 5.12-15.36 5.12-30.72-5.12-40.96l-199.68-235.52c-10.24-15.36-35.84-15.36-46.08 0L286.72 476.16c-10.24 5.12-15.36 15.36-15.36 25.6 0 20.48 15.36 35.84 35.84 35.84z m317.44-71.68H378.88l122.88-143.36 122.88 143.36z" fill="#ffffff" p-id="2476"></path></svg>